<?xml version="1.0" encoding="utf-8"?>
<!-- Generator: Adobe Illustrator 23.0.6, SVG Export Plug-In . SVG Version: 6.00 Build 0)  -->
<svg version="1.1" id="bc47661d-47c3-4b50-aba8-f8ee1be74fb5"
	 xmlns="http://www.w3.org/2000/svg" xmlns:xlink="http://www.w3.org/1999/xlink" x="0px" y="0px" viewBox="0 0 117.3 151.7"
	 style="enable-background:new 0 0 117.3 151.7;" xml:space="preserve">
<style type="text/css">
	.st0{fill:#37E8D7;}
</style>
<title>logo-white</title>
<path class="st0" d="M45.4,125.4c-1.8,8.3-6.2,12.8-9.6,15.1c2.1,2.6,6.2,9.1,7.4,11.2h10.3l-7.6-10.4c6.7-2.1,11.7-7.8,12.9-14.7
	l-0.7-0.1C53.6,125.7,49.3,125,45.4,125.4z"/>
<path class="st0" d="M117.3,81.2c0,0-2-7.7-4.2-17c-2.2-9.3-3.2-14.8-6.7-17.1c0.4-1.4,0.7-2.9,0.6-4.4l-1.7-1.9l1.8-2.3
	c-0.3-1.7-0.8-3.4-1.4-5c-1.4-1.2-7-2.8-11.5-3.4l2.3-2.1c0,0,6.5,0.6,11.4,3.4c0-3.5-0.4-6.9-1.1-10.3c-1-1.7-2.2-3.3-3.6-4.7
	c0,0-1.2-6.2-1.6-9.1c-0.3-1.6-0.3-3.1-0.2-4.7c-0.4-0.8-1.1-1.3-1.9-1.7l-1.4,2.1l-1.1-3c-1.5-0.3-3-0.4-4.5-0.2L91.3,3l-1.9-2.3
	L89,0.8c-1.3,0.4-2.5,0.9-3.6,1.7L85,5.6l-1.5-1.4c-0.9,0.9-1.5,2-1.9,3.3c0.5,0.7,1,2.4,1.2,7.8c0.2,5.6,0.2,10.5,0.2,10.5
	c-0.9,1.5-1.4,3.3-1.3,5.1c0,3.2,0,6.2,0,6.2c0.9,0.6,1.5,1.6,1.8,2.6c0.2,1.5,0.1,5.9-2.1,8.9c-2.6,3.5-6,5.7-6.9,10
	c-0.9,4.2,1.1,7.3,3.8,8.3c-3.5-0.3-6.9-3.4-6.6-8.6c0.3-4.5,3.2-7.5,5.5-11.3c-2.3-3.7-5.1-8.3-7.5-12.3c-4.4-7.4-10.6-9.5-19.7-8
	c-9,1.5-14.4,9-19.4,16.7C25.4,51.3,0,92.3,0,92.3h6l18.1-24.2l2,0L8.4,92.3H15L33.8,71l2.1,0L17.7,92.3H24l18.8-18.7l2.2,0
	L26.8,92.3H33l18.3-16.2l2.3,0L36,92.3h6.1l17.3-14.4l2.4-0.5c-4.8,3.7-12.5,9.5-17,13c-6.9,5.3-12.3,9-17.2,15.7
	c-4.9,6.7-4,15.5-4.2,21.2c-0.2,5.7-5.5,7.8-8.1,6.7c-1.9,5.6-4.5,11-7.7,16c0.3,0.6,0.6,1.2,0.6,1.9h13.9l-3.8-3.4l4.2-7.1
	c5.8,0.9,18.2-2.3,20.6-18.1c8.8-1.8,19.9,2.9,29.3,1.9c-3.7,8.4-5.6,17.5-5.5,26.7h17.6l-3.1-7.7l-2.7-2.2
	c2.6-11.1,6.9-16.1,10.9-23.8c0.6-1.1,1.1-2.3,1.7-3.5l1.5,0.3c-1,3.6-2.4,7.1-4.2,10.3c2.7,0.3,5.4,0.2,8.1-0.2
	c-1.4,1.1-2.9,1.9-4.5,2.4c-2.5,6.4-3.8,13.2-3.9,20l0.1,4.3h15.3l-1.4-4.6l-2.7-2.2c-0.1-7.5,3.3-15.9,8.9-24.4
	c5.6-8.5,10-21.3,5.7-37.4L117.3,81.2z M56.8,91.7c-5,3.8-10.1,7.2-13.5,10c-0.2,3.7-0.5,9.8-0.5,9.8l-9,5.6l-1.5-0.9
	c0.3-2.9,0.8-5,0.8-5l1.3-0.9c-0.3,1.8-0.4,4.4-0.4,4.4l6.8-4.4c0.3-4.7,0.8-9.4,0.8-9.4c1.5-1.4,12.4-9.2,20.3-14.5
	C61.8,86.2,61.9,87.8,56.8,91.7L56.8,91.7z M76.9,115.6c-7.2,1.3-16.1-0.4-16.1-0.4l0.3-1.4c0,0,10.8,1.3,16.8-0.7
	C77.5,114.1,77.4,114.5,76.9,115.6z M94.2,37.8l1.7-1.9c1.7,0.2,3.4,0.7,5,1.4l-0.4,0.5l0.7,5.2c-0.8,0.1-1.7,0.4-2.4,0.8l-1.1-0.7
	v-3.6c-3.3-0.5-3.6-1.1-3.6-1.1L94.2,37.8z M110.2,81c0,0-7.3-2.3-13.5-3.8c0,0-1.9-12.5-4.7-25.8c0,0,1.6-0.1,2.7,4.1L99,75.6
	c4.5,1.1,9,2.4,13.3,4L110.2,81z"/>
</svg>
