<svg xmlns="http://www.w3.org/2000/svg" width="25" height="25" viewBox="0 0 25 25">
  <path fill="#FEFEFE" fill-rule="evenodd" d="M262.323212,36.3813754 C261.20527,34.4185841 259.688544,32.8645797 257.773785,31.7188502 C255.858026,30.5728647 253.767722,30 251.500125,30 C249.232278,30 247.140975,30.5728647 245.225216,31.7188502 C243.310457,32.8645797 241.79448,34.4185841 240.676538,36.3813754 C239.558596,38.3449345 239,40.4886978 239,42.8131771 C239,45.6053168 239.79507,48.1158876 241.383961,50.3456574 C242.973851,52.5754272 245.027198,54.1189367 247.544503,54.9751622 C247.83741,55.03122 248.054906,54.9923123 248.195242,54.859207 C248.336826,54.7253338 248.406994,54.5581842 248.406994,54.3582703 C248.406994,54.3252499 248.403997,54.0252511 248.399253,53.4569938 C248.39326,52.8905284 248.390263,52.395479 248.390263,51.9726137 L248.0167,52.0391664 C247.77773,52.0844734 247.476083,52.1031593 247.113507,52.0975279 C246.749683,52.0921525 246.372125,52.0535008 245.982081,51.9805488 C245.591038,51.9086208 245.227963,51.7424951 244.891357,51.480636 C244.555001,51.2195449 244.317029,50.8775666 244.175694,50.4547013 L244.012635,50.0707437 C243.904512,49.814772 243.733712,49.5319232 243.500484,49.2198937 C243.266508,48.908888 243.030534,48.6969434 242.792563,48.5858517 L242.678197,48.5029169 C242.602036,48.446859 242.532117,48.3800504 242.466444,48.301979 C242.401271,48.2249316 242.352328,48.1466042 242.320365,48.0690448 C242.288153,47.9909734 242.314372,47.9269805 242.401271,47.877066 C242.487919,47.8256156 242.646234,47.8020662 242.873468,47.8020662 L243.199087,47.8519807 C243.415833,47.8960079 243.685019,48.0298811 244.004894,48.2520646 C244.32477,48.4750159 244.588212,48.764008 244.793971,49.1198087 C245.043679,49.5754384 245.343828,49.9227921 245.696915,50.1623816 C246.050251,50.4017152 246.405086,50.520742 246.763167,50.520742 C247.121248,50.520742 247.430636,50.4923292 247.691081,50.4378072 C247.951527,50.3817494 248.195242,50.2988145 248.423225,50.1877228 C248.52111,49.4418212 248.787049,48.8689564 249.220542,48.4688726 C248.602016,48.4015521 248.046166,48.301979 247.552494,48.1675939 C247.058821,48.0350005 246.548668,47.8179365 246.023033,47.5166578 C245.496399,47.2171708 245.05941,46.84422 244.712067,46.4001091 C244.365472,45.9552302 244.079807,45.3703348 243.858565,44.6479825 C243.636076,43.9243504 243.524956,43.0901386 243.524956,42.1456028 C243.524956,40.7997035 243.953205,39.653974 244.810701,38.7079024 C244.408672,37.6960462 244.446627,36.5623474 244.924818,35.3052702 C245.238701,35.2044173 245.705904,35.2804409 246.32443,35.5302693 C246.942957,35.7803537 247.395427,35.99537 247.683091,36.1722464 C247.970754,36.3501468 248.201235,36.5011701 248.374782,36.6232686 C249.38435,36.3342766 250.425882,36.1893965 251.500125,36.1893965 C252.573869,36.1893965 253.61565,36.3342766 254.625218,36.6232686 L255.243495,36.2221609 C255.666001,35.9551824 256.165416,35.7112413 256.740993,35.48829 C257.315321,35.2663625 257.755306,35.2054412 258.0597,35.3052702 C258.54738,36.5623474 258.591328,37.6960462 258.189299,38.7089263 C259.046795,39.653974 259.475044,40.7997035 259.475044,42.1456028 C259.475044,43.0901386 259.363675,43.9274221 259.141435,44.6564296 C258.918945,45.3851811 258.63228,45.9693086 258.279193,46.4077882 C257.926106,46.8480596 257.48712,47.2171708 256.960237,47.5179376 C256.434602,47.8179365 255.924448,48.0350005 255.430776,48.1675939 C254.937353,48.301979 254.381254,48.4015521 253.762977,48.4688726 C254.326818,48.9698093 254.608488,49.7587142 254.608488,50.8376351 L254.608488,54.3582703 C254.608488,54.5581842 254.676908,54.7253338 254.812499,54.8581831 C254.948091,54.9912884 255.161591,55.03122 255.455247,54.9751622 C257.972802,54.1181688 260.026149,52.5754272 261.61504,50.3446335 C263.20493,48.1146077 264,45.6042929 264,42.8126652 C263.999001,40.4886978 263.440155,38.3449345 262.323212,36.3813754" transform="translate(-239 -30)"/>
</svg>
