<svg xmlns="http://www.w3.org/2000/svg" width="25" height="25" viewBox="0 0 25 25">
  <path fill="#FEFEFE" fill-rule="evenodd" d="M312.959607,40.1873805 C312.965438,40.3295217 312.968354,40.4745787 312.968354,40.6203646 C312.968354,45.022369 309.616737,50.098633 303.486441,50.098633 C301.604345,50.098633 299.853457,49.5497492 298.378104,48.6014121 C298.639789,48.6327561 298.904391,48.6495215 299.172637,48.6495215 C300.735461,48.6495215 302.170723,48.117403 303.312227,47.2230067 C301.854368,47.1945785 300.624664,46.2323917 300.200427,44.9079271 C300.402341,44.9480182 300.610814,44.9676993 300.826577,44.9676993 C301.129083,44.9676993 301.4243,44.9283371 301.704208,44.8510706 C300.180017,44.5463781 299.029767,43.2000456 299.029767,41.585467 C299.029767,41.5708884 299.029767,41.5570388 299.033411,41.5424602 C299.479516,41.7932119 299.995598,41.9411846 300.542295,41.9579499 C299.647899,41.3631436 299.058195,40.3411846 299.058195,39.1851027 C299.058195,38.5757177 299.223662,38.0035082 299.508673,37.5107519 C301.150951,39.5269705 303.608901,40.853622 306.375917,40.9928475 C306.31906,40.7479272 306.291361,40.4949887 306.291361,40.2325741 C306.291361,38.3934854 307.78275,36.901367 309.622568,36.901367 C310.581839,36.901367 311.447807,37.3059228 312.054276,37.9517542 C312.81455,37.8037815 313.5289,37.5275173 314.172545,37.1433715 C313.921793,37.9233259 313.395506,38.5757177 312.705939,38.9882917 C313.380928,38.9088384 314.024572,38.7295218 314.619379,38.4649204 C314.175461,39.1311619 313.609083,39.7172211 312.959607,40.1873805 M306.498427,30 C299.608212,30 294,35.6082119 294,42.499056 C294,49.3924175 299.608212,55 306.498427,55 C313.391788,55 319,49.3924175 319,42.499056 C319,35.6082119 313.391788,30 306.498427,30" transform="translate(-294 -30)"/>
</svg>
